<svg width="500" height="500" viewBox="0 0 500 500" fill="none" xmlns="http://www.w3.org/2000/svg">
<g clip-path="url('#clip0_1_94')">
<rect width="500" height="500" fill="white"></rect>
<path opacity="0.1" d="M107.871 41.6538C133.13 19.1452 172.778 14.5578 208.867 16.3508C322.222 21.9826 424.547 76.7084 513.058 138.609C545.099 161.018 576.647 185.169 597.446 216.028C639.786 278.848 627.226 365.873 568.352 417.625C548.321 435.232 524.038 448.731 499.109 460.696C454.785 481.971 406.959 499.05 356.652 503.912C320.777 507.378 284.46 504.56 248.795 499.723C149.15 486.209 51.3406 456.327 -30.6377 405.201C-66.593 382.777 -100.483 354.9 -115.303 318.624C-130.123 282.349 -120.639 236.38 -83.9245 214.909C-68.7399 206.028 -50.5849 202.017 -32.8103 198.251C-6.64711 192.708 19.9358 187.243 43.546 175.973C67.9323 164.333 96.8082 141.823 91.9798 116.059C86.799 88.4146 82.6423 64.136 107.871 41.6538Z" fill="#E97C3E"></path>
<path d="M368.661 335.254C366.934 331.912 357.808 311.145 357.808 311.145L342.516 271.519C342.516 271.519 331.663 254.81 331.663 251.706C331.663 248.603 311.931 236.19 311.931 236.19C311.931 236.19 295.898 231.416 294.665 230.939C293.432 230.461 274.439 224.178 274.439 224.178C274.439 224.178 266.961 214.344 265.895 216.912L265.894 216.919C265.855 216.854 265.816 216.797 265.777 216.731C264.249 213.876 263.281 210.755 262.926 207.536C262.885 207.25 262.85 206.948 262.814 206.65C267.74 203.311 271.777 198.821 274.577 193.57C277.376 188.319 278.853 182.464 278.879 176.513C278.876 174.947 278.77 173.382 278.563 171.829C278.699 171.744 278.841 171.669 278.988 171.605C279.295 171.472 279.217 171.364 278.991 171.25C279.069 171.21 279.146 171.167 279.223 171.134C279.632 170.956 279.359 170.822 278.964 170.663L278.988 170.651C279.544 170.409 278.84 170.249 278.275 169.993C278.245 169.828 278.216 169.662 278.184 169.498C278.309 169.183 278.385 168.851 278.41 168.514C278.46 168.539 278.506 168.566 278.559 168.589C278.697 167.974 278.693 167.335 278.549 166.722C278.514 166.846 278.471 166.969 278.421 167.089C278.456 166.532 278.341 165.977 278.089 165.479C277.836 164.982 277.455 164.562 276.985 164.263C276.957 164.238 276.925 164.211 276.896 164.186L277.943 153.477C293.367 152.749 296.073 126.507 292.555 125.049C289.037 123.591 292.555 120.433 292.555 114.115C292.555 107.798 280.919 100.752 280.919 100.752C280.919 100.752 276.048 103.181 268.472 91.0326C260.895 78.8838 233.023 76.94 231.129 80.0987C229.235 83.2574 216.787 87.388 200.551 92.0045C184.315 96.6211 187.292 115.816 189.998 119.947C192.227 123.362 193.532 127.296 193.786 131.367C193.786 133.796 198.928 144.001 198.928 144.001C197.306 147.538 201.433 166.91 202.655 172.415C202.636 172.585 202.615 172.753 202.599 172.923C202.588 172.94 202.574 172.954 202.564 172.971C202.506 173.06 202.453 173.152 202.407 173.248C202.144 173.818 202.057 174.454 202.157 175.074C202.068 175.752 202.163 176.441 202.431 177.07C202.524 182.257 203.724 187.364 205.951 192.05C208.178 196.735 211.381 200.891 215.344 204.238C215.363 204.57 215.382 204.903 215.4 205.244C215.627 209.741 215.755 215.06 215.519 220.149C215.506 220.409 215.487 220.664 215.473 220.924C214.578 221.105 213.738 221.493 213.021 222.059C212.304 222.624 211.73 223.35 211.345 224.178C209.816 227.119 200.936 231.655 200.936 231.655C200.936 231.655 185.397 232.371 183.917 235.236C182.438 238.1 159.992 247.648 159.992 247.648C159.992 247.648 148.153 254.571 149.879 262.448C150.781 266.564 148.249 272.959 145.625 278.13C140.136 276.048 134.421 274.623 128.597 273.884L141.172 285.914C140.908 286.325 140.753 286.558 140.753 286.558L133.6 311.861C133.6 311.861 131.133 320.693 128.667 322.841C126.2 324.99 130.887 344.564 130.887 344.564C130.887 344.564 128.174 358.409 125.954 361.99C123.734 365.57 129.407 374.402 129.407 374.402L140.753 400.183L170.845 407.822C170.845 407.822 172.85 408.246 176.09 408.94C175.989 409.556 175.884 410.17 175.778 410.781C174.327 418.993 172.423 426.546 170.105 428.589C164.432 433.602 164.678 456.041 164.678 456.041L164.925 487.789C164.925 487.789 166.898 526.937 165.912 528.369C165.289 529.273 166.539 530.747 169.836 532.072C169.742 532.662 169.649 533.259 169.562 533.869C168.635 540.362 168.22 547.771 170.351 551.046C171.277 552.818 171.783 554.778 171.831 556.775C171.831 559.879 176.518 566.324 176.518 566.324C176.518 566.324 172.818 592.82 178.984 601.891C185.151 610.962 190.33 627.433 187.371 631.252C187.371 631.252 182.191 642.472 184.657 647.485C187.124 652.497 184.657 655.362 181.451 656.556C178.244 657.749 178.521 667.536 178.521 667.536L184.411 714.084C184.411 714.084 187.617 723.632 184.904 726.974C182.191 730.316 182.191 747.026 186.384 752.755C190.577 758.484 180.464 768.987 180.464 768.987C180.464 768.987 174.298 777.819 184.164 780.684C184.164 780.684 186.137 781.161 182.437 784.981C178.738 788.8 177.998 793.574 180.464 795.245C180.976 795.552 181.511 795.817 182.064 796.04C181.973 796.605 181.873 797.192 181.757 797.813C180.809 802.798 179.024 809.29 175.778 812.432C169.487 818.878 164.058 826.112 159.627 833.954C156.243 840.37 154.763 846.376 158.512 849.193C167.392 855.877 178.738 858.025 185.397 855.399C192.057 852.774 201.43 844.658 201.43 844.658L203.65 835.348C203.65 835.348 202.17 829.619 209.569 827.471C216.969 825.322 223.875 817.684 223.875 817.684V805.309C225.667 804.285 227.396 803.157 229.055 801.929C229.055 801.929 232.508 789.755 229.055 785.697C225.602 781.639 224.369 780.206 228.808 777.581C233.248 774.955 233.85 769.226 230.594 764.213C227.328 759.2 222.149 751.8 226.588 741.297C231.028 730.794 232.656 698.568 232.656 698.568C232.656 698.568 230.584 676.607 232.656 671.594C234.728 666.581 230.288 656.556 230.288 656.556C230.288 656.556 231.768 644.143 234.481 638.414C237.195 632.685 239.414 602.369 239.414 602.369C239.414 602.369 244.348 589.479 244.348 581.124C244.348 572.769 236.701 552.718 248.047 547.466C248.047 547.466 252.98 551.763 251.007 568.95C251.007 568.95 256.68 589.001 256.68 595.208C256.68 601.414 260.873 623.853 260.873 623.853C260.873 623.853 261.367 631.014 263.093 633.64C264.82 636.266 263.093 643.427 263.093 643.427C263.093 643.427 269.506 649.394 267.78 653.214C266.053 657.033 268.076 665.646 268.076 665.646L266.546 719.097C266.546 719.097 262.107 742.013 272.466 755.858C272.466 755.858 268.766 776.148 266.546 777.581C264.326 779.013 274.686 791.426 274.686 791.426C274.686 791.426 271.815 799.467 277.646 799.861V813.148C279.67 816.726 282.447 819.82 285.785 822.219C291.212 826.038 288.992 839.167 288.992 839.167C288.992 839.167 295.898 855.877 314.151 852.296C332.403 848.716 334.869 847.045 333.883 841.077C333.528 838.9 332.738 835.014 331.604 830.603C329.64 822.935 326.631 813.683 323.03 809.119C317.357 801.929 312.671 786.89 312.671 786.89C312.671 786.89 310.451 781.877 312.671 780.207C314.89 778.536 313.904 775.432 313.904 775.432C313.904 775.432 316.065 769.226 314.121 765.407C312.177 761.587 317.85 753.71 317.85 753.71L316.124 716.949L317.85 663.478C317.85 663.478 310.204 654.646 313.411 649.395C316.617 644.143 309.711 636.743 309.711 636.743C309.711 636.743 308.971 636.504 310.944 630.537C312.125 627.02 311.949 623.189 310.451 619.795C310.451 619.795 306.258 604.995 313.657 593.776C313.657 593.776 316.864 578.976 317.85 571.337C318.531 566.028 322.793 546.196 325.329 534.595C325.472 533.939 325.61 533.312 325.741 532.712C329.394 532.911 332.156 533.144 332.156 533.144C332.156 533.144 326.483 493.757 332.156 485.641C337.829 477.525 327.717 415.46 327.717 415.46C327.717 415.46 325.299 404.614 323.81 393.547C323.724 392.916 323.647 392.287 323.568 391.657C328.148 391.29 332.745 391.188 337.336 391.351C349.175 392.067 360.768 387.532 361.015 382.996C361.261 378.461 367.674 360.558 368.661 356.5C369.648 352.442 370.388 338.596 368.661 335.254Z" fill="url('#paint0_linear_1_94')"></path>
<path d="M277.738 258.146L230.918 269.079C230.918 269.079 207.864 249.59 213.568 239.132C215.527 235.539 216.392 229.407 216.686 222.923C216.914 217.856 216.791 212.561 216.572 208.083C216.24 201.609 215.707 196.828 215.707 196.828C215.707 196.828 263.716 169.733 262.052 196.828C261.714 201.339 261.819 205.874 262.366 210.365C262.705 213.561 263.637 216.665 265.113 219.52C267.68 224.093 270.846 224.159 270.846 224.159L277.738 258.146Z" fill="#FDC2CC"></path>
<path opacity="0.1" d="M262.366 210.365C255.6 215.219 247.388 217.636 239.071 217.221C230.754 216.807 222.823 213.586 216.572 208.083C216.24 201.609 215.707 196.828 215.707 196.828C215.707 196.828 263.716 169.733 262.052 196.828C261.714 201.339 261.819 205.874 262.366 210.365Z" fill="black"></path>
<path d="M240.9 216.316C261.245 216.316 277.738 199.823 277.738 179.478C277.738 159.132 261.245 142.639 240.9 142.639C220.555 142.639 204.061 159.132 204.061 179.478C204.061 199.823 220.555 216.316 240.9 216.316Z" fill="#FDC2CC"></path>
<path opacity="0.1" d="M277.738 258.146L230.918 269.079C230.918 269.079 207.864 249.59 213.568 239.132C215.527 235.539 216.392 229.407 216.686 222.923C217.72 228.561 220.747 233.639 225.214 237.231C235.909 244.361 234.245 253.155 234.245 253.155L253.496 252.442C252.308 244.599 259.438 240.321 261.815 239.37C264.191 238.419 263.003 234.141 263.003 234.141L265.113 219.52C267.68 224.093 270.846 224.159 270.846 224.159L277.738 258.146Z" fill="black"></path>
<path d="M320.281 376.504C319.53 380.944 320.081 388.302 321.032 395.565C322.467 406.583 324.797 417.383 324.797 417.383C324.797 417.383 334.541 479.177 329.075 487.257C323.608 495.338 329.075 534.553 329.075 534.553C329.075 534.553 312.675 533.127 307.447 534.315C302.218 535.504 281.303 535.979 281.303 535.979L229.492 537.814V536.217C223.532 536.265 217.58 536.662 211.667 537.405C202.873 538.593 189.088 536.93 180.295 535.504C171.501 534.078 167.936 531.226 168.887 529.8C169.837 528.374 167.936 489.396 167.936 489.396L167.698 457.786C167.698 457.786 167.461 435.446 172.927 430.455C175.161 428.42 176.996 420.9 178.393 412.725C180.399 400.889 181.483 387.675 181.483 387.675L145.357 290.944L144.645 289.043C144.645 289.043 155.102 272.881 153.438 265.038C151.775 257.195 163.183 250.303 163.183 250.303C163.183 250.303 184.81 240.796 186.236 237.944C187.662 235.092 202.635 234.379 202.635 234.379C202.635 234.379 211.191 229.863 212.665 226.935C213.024 226.117 213.572 225.397 214.265 224.833C214.957 224.269 215.774 223.879 216.648 223.694C217.655 229.401 220.699 234.549 225.214 238.182C235.909 245.312 234.245 254.105 234.245 254.105L253.496 253.392C252.308 245.549 259.438 241.271 261.815 240.321C264.191 239.37 263.003 235.092 263.003 235.092L265.228 219.701C266.254 217.143 273.46 226.935 273.46 226.935C273.46 226.935 291.761 233.191 292.949 233.666C294.137 234.141 309.586 238.895 309.586 238.895C309.586 238.895 328.599 251.253 328.599 254.343C328.599 257.433 339.057 274.07 339.057 274.07C339.057 274.07 338.933 274.735 338.705 275.952C336.29 289.052 322.021 366.284 320.281 376.504Z" fill="#E97C3E"></path>
<path d="M244.227 338.002C244.227 338.002 203.111 327.069 199.07 324.455C195.03 321.841 171.263 337.051 200.259 357.728C200.259 357.728 235.714 365.096 245.199 357.728C254.685 350.361 244.227 338.002 244.227 338.002Z" fill="#FDC2CC"></path>
<path opacity="0.1" d="M333.115 272.881L338.106 273.119L352.841 312.572C352.841 312.572 361.635 333.249 363.299 336.576C364.962 339.903 364.249 353.688 363.299 357.728C362.348 361.769 356.169 379.594 355.931 384.11C355.693 388.625 344.523 393.141 333.115 392.428C321.707 391.715 295.088 395.28 295.088 395.28C295.088 395.28 266.66 392.309 249.218 401.222C249.218 401.222 238.048 378.168 239.236 335.15C239.236 335.15 258.963 333.962 263.954 335.863C268.945 337.764 293.187 343.231 296.276 340.379C299.366 337.527 313.389 345.607 313.389 345.607C314.102 344.04 314.471 342.338 314.471 340.616C314.471 338.894 314.102 337.193 313.389 335.625C311.012 329.921 306.971 312.096 312.2 306.392C317.429 300.688 333.115 272.881 333.115 272.881Z" fill="black"></path>
<path opacity="0.1" d="M321.032 395.565C309.234 396.364 296.039 398.132 296.039 398.132C296.039 398.132 267.614 395.156 250.169 404.074C250.169 404.074 238.999 381.02 240.187 338.002C240.187 338.002 259.913 336.814 264.904 338.715C269.895 340.616 294.137 346.083 297.227 343.231C300.317 340.379 314.339 348.459 314.339 348.459C315.053 346.892 315.422 345.19 315.422 343.468C315.422 341.746 315.053 340.045 314.339 338.477C311.962 332.773 307.922 314.948 313.151 309.244C318.379 303.54 334.065 275.733 334.065 275.733L338.705 275.952C336.29 289.052 322.021 366.285 320.281 376.504C319.53 380.944 320.081 388.302 321.032 395.565Z" fill="black"></path>
<path d="M334.066 273.832L339.057 274.069L353.792 313.522C353.792 313.522 362.586 334.199 364.249 337.527C365.913 340.854 365.2 354.639 364.249 358.679C363.299 362.719 357.119 380.545 356.882 385.06C356.644 389.576 345.474 394.092 334.066 393.379C322.658 392.666 296.039 396.231 296.039 396.231C296.039 396.231 267.611 393.259 250.169 402.172C250.169 402.172 238.999 379.119 240.187 336.101C240.187 336.101 259.913 334.912 264.904 336.814C269.895 338.715 294.137 344.181 297.227 341.329C300.317 338.477 314.339 346.558 314.339 346.558C315.053 344.991 315.422 343.289 315.422 341.567C315.422 339.845 315.053 338.143 314.339 336.576C311.962 330.872 307.922 313.047 313.151 307.343C318.379 301.639 334.066 273.832 334.066 273.832Z" fill="#E97C3E"></path>
<path d="M283.853 361.13L289.783 364.802L322.831 311.429L316.901 307.757L283.853 361.13Z" fill="#DFE6F5"></path>
<path d="M339.776 304.201C345.617 294.769 344.988 283.801 338.372 279.705C331.756 275.608 321.658 279.934 315.818 289.367C309.977 298.799 310.606 309.767 317.222 313.863C323.838 317.96 333.936 313.634 339.776 304.201Z" fill="#DFE6F5"></path>
<path opacity="0.1" d="M336.396 302.108C340.588 295.337 340.137 287.465 335.388 284.524C330.639 281.584 323.391 284.689 319.198 291.46C315.006 298.23 315.457 306.103 320.206 309.043C324.955 311.984 332.203 308.879 336.396 302.108Z" fill="black"></path>
<path d="M266.962 388.41L272.892 392.081L293.455 358.872L287.525 355.2L266.962 388.41Z" fill="#53526B"></path>
<path d="M232.106 390.764L246.604 386.724C246.604 386.724 318.142 388.625 294.137 359.154C294.137 359.154 281.541 347.033 255.16 356.778C228.779 366.522 221.411 367.711 221.411 367.711L232.106 390.764Z" fill="#FDC2CC"></path>
<path opacity="0.1" d="M221.411 266.464C222.986 266.464 224.263 265.187 224.263 263.612C224.263 262.037 222.986 260.76 221.411 260.76C219.836 260.76 218.559 262.037 218.559 263.612C218.559 265.187 219.836 266.464 221.411 266.464Z" fill="black"></path>
<path opacity="0.1" d="M270.371 264.8C271.946 264.8 273.223 263.524 273.223 261.948C273.223 260.373 271.946 259.096 270.371 259.096C268.796 259.096 267.519 260.373 267.519 261.948C267.519 263.524 268.796 264.8 270.371 264.8Z" fill="black"></path>
<path d="M221.411 265.513C222.986 265.513 224.263 264.237 224.263 262.661C224.263 261.086 222.986 259.809 221.411 259.809C219.836 259.809 218.559 261.086 218.559 262.661C218.559 264.237 219.836 265.513 221.411 265.513Z" fill="white"></path>
<path opacity="0.1" d="M225.451 305.917C227.027 305.917 228.303 304.64 228.303 303.065C228.303 301.49 227.027 300.213 225.451 300.213C223.876 300.213 222.599 301.49 222.599 303.065C222.599 304.64 223.876 305.917 225.451 305.917Z" fill="black"></path>
<path opacity="0.1" d="M271.797 303.065C273.372 303.065 274.649 301.788 274.649 300.213C274.649 298.638 273.372 297.361 271.797 297.361C270.221 297.361 268.945 298.638 268.945 300.213C268.945 301.788 270.221 303.065 271.797 303.065Z" fill="black"></path>
<path d="M225.451 304.966C227.027 304.966 228.303 303.689 228.303 302.114C228.303 300.539 227.027 299.262 225.451 299.262C223.876 299.262 222.599 300.539 222.599 302.114C222.599 303.689 223.876 304.966 225.451 304.966Z" fill="white"></path>
<path opacity="0.1" d="M270.608 440.691C272.183 440.691 273.46 439.414 273.46 437.839C273.46 436.263 272.183 434.987 270.608 434.987C269.033 434.987 267.756 436.263 267.756 437.839C267.756 439.414 269.033 440.691 270.608 440.691Z" fill="black"></path>
<path opacity="0.1" d="M233.073 440.691C234.648 440.691 235.925 439.414 235.925 437.839C235.925 436.263 234.648 434.987 233.073 434.987C231.498 434.987 230.221 436.263 230.221 437.839C230.221 439.414 231.498 440.691 233.073 440.691Z" fill="black"></path>
<path d="M270.608 439.74C272.183 439.74 273.46 438.463 273.46 436.888C273.46 435.313 272.183 434.036 270.608 434.036C269.033 434.036 267.756 435.313 267.756 436.888C267.756 438.463 269.033 439.74 270.608 439.74Z" fill="white"></path>
<path opacity="0.1" d="M235.925 488.446C237.5 488.446 238.777 487.169 238.777 485.594C238.777 484.018 237.5 482.742 235.925 482.742C234.35 482.742 233.073 484.018 233.073 485.594C233.073 487.169 234.35 488.446 235.925 488.446Z" fill="black"></path>
<path opacity="0.1" d="M271.797 485.594C273.372 485.594 274.649 484.317 274.649 482.742C274.649 481.166 273.372 479.89 271.797 479.89C270.221 479.89 268.945 481.166 268.945 482.742C268.945 484.317 270.221 485.594 271.797 485.594Z" fill="black"></path>
<path d="M235.925 487.495C237.5 487.495 238.777 486.218 238.777 484.643C238.777 483.068 237.5 481.791 235.925 481.791C234.35 481.791 233.073 483.068 233.073 484.643C233.073 486.218 234.35 487.495 235.925 487.495Z" fill="white"></path>
<path d="M233.073 439.74C234.648 439.74 235.925 438.463 235.925 436.888C235.925 435.313 234.648 434.036 233.073 434.036C231.498 434.036 230.221 435.313 230.221 436.888C230.221 438.463 231.498 439.74 233.073 439.74Z" fill="white"></path>
<path d="M271.797 484.643C273.372 484.643 274.649 483.366 274.649 481.791C274.649 480.216 273.372 478.939 271.797 478.939C270.221 478.939 268.945 480.216 268.945 481.791C268.945 483.366 270.221 484.643 271.797 484.643Z" fill="white"></path>
<path d="M270.371 263.85C271.946 263.85 273.223 262.573 273.223 260.998C273.223 259.423 271.946 258.146 270.371 258.146C268.796 258.146 267.519 259.423 267.519 260.998C267.519 262.573 268.796 263.85 270.371 263.85Z" fill="white"></path>
<path d="M271.797 302.114C273.372 302.114 274.649 300.837 274.649 299.262C274.649 297.687 273.372 296.41 271.797 296.41C270.221 296.41 268.945 297.687 268.945 299.262C268.945 300.837 270.221 302.114 271.797 302.114Z" fill="white"></path>
<path opacity="0.1" d="M276.075 399.32C276.075 399.32 276.55 464.441 277.976 476.087C277.976 476.087 278.494 402.39 276.075 399.32Z" fill="black"></path>
<path opacity="0.1" d="M288.196 429.504C287.216 429.504 307.684 505.795 308.635 511.262C309.586 516.728 293.9 429.504 288.196 429.504Z" fill="black"></path>
<path opacity="0.1" d="M304.357 417.145C304.357 417.858 315.765 458.5 321.469 460.639C327.173 462.778 304.357 417.145 304.357 417.145Z" fill="black"></path>
<path opacity="0.1" d="M349.276 338.002C349.276 338.002 325.034 339.083 324.321 342.583C323.608 346.083 349.276 338.002 349.276 338.002Z" fill="black"></path>
<path opacity="0.1" d="M150.111 288.092H145.595L138.703 313.285C138.703 313.285 136.326 322.078 133.949 324.217C131.573 326.356 136.088 345.845 136.088 345.845C136.088 345.845 133.474 359.63 131.335 363.195C129.196 366.76 134.662 375.554 134.662 375.554L145.595 401.222L174.591 408.827C174.591 408.827 225.689 419.997 228.066 421.661C230.442 423.325 232.581 420.948 234.245 405.5C235.909 390.051 240.424 360.105 243.989 358.679C243.989 358.679 215.469 361.769 213.093 361.294C210.716 360.818 199.308 361.531 199.308 361.531C199.308 361.531 184.335 360.581 181.958 362.007C179.582 363.433 185.048 355.104 185.048 355.104C186.049 351.29 186.049 347.282 185.048 343.469C183.384 337.051 182.434 264.325 150.111 288.092Z" fill="black"></path>
<path opacity="0.1" d="M243.039 361.531C239.474 362.957 234.958 392.903 233.294 408.352C231.631 423.8 229.492 426.177 227.115 424.513C225.185 423.163 191.123 415.539 178.393 412.725C180.399 400.889 181.483 387.675 181.483 387.675L145.358 290.944H149.16C181.483 267.177 182.434 339.903 184.097 346.32C185.098 350.135 185.098 354.142 184.097 357.957C184.097 357.957 178.631 366.285 181.008 364.858C183.384 363.432 198.357 364.383 198.357 364.383C198.357 364.383 209.765 363.67 212.142 364.146C214.519 364.621 243.039 361.531 243.039 361.531Z" fill="black"></path>
<path d="M149.16 289.043H144.645L137.752 314.235C137.752 314.235 135.375 323.029 132.999 325.168C130.622 327.307 135.138 346.796 135.138 346.796C135.138 346.796 132.523 360.58 130.384 364.146C128.245 367.711 133.712 376.504 133.712 376.504L144.645 402.172L173.64 409.778C173.64 409.778 224.738 420.948 227.115 422.612C229.492 424.275 231.631 421.899 233.294 406.45C234.958 391.002 239.474 361.056 243.039 359.63C243.039 359.63 214.519 362.72 212.142 362.244C209.765 361.769 198.357 362.482 198.357 362.482C198.357 362.482 183.384 361.531 181.008 362.957C178.631 364.383 184.097 356.054 184.097 356.054C185.098 352.24 185.098 348.233 184.097 344.419C182.434 338.002 181.483 265.276 149.16 289.043Z" fill="#E97C3E"></path>
<path opacity="0.1" d="M164.609 375.078C164.609 375.078 151.537 399.796 149.16 396.944C146.784 394.092 164.609 375.078 164.609 375.078Z" fill="black"></path>
<path opacity="0.1" d="M151.062 361.003C151.062 361.003 138.94 371.038 144.644 373.652C150.348 376.267 151.062 361.003 151.062 361.003Z" fill="black"></path>
<path opacity="0.1" d="M162.47 348.697C163.42 348.935 180.057 352.239 180.295 353.677C180.532 355.114 162.47 348.697 162.47 348.697Z" fill="black"></path>
<path opacity="0.1" d="M277.843 174.591C277.326 174.773 276.885 175.123 276.59 175.585C276.296 176.047 276.164 176.594 276.217 177.139C275.248 177.995 273.888 176.987 273.099 175.894C272.301 174.81 271.397 173.47 270.19 173.622C269.617 173.805 269.06 174.037 268.526 174.316C266.625 174.924 265.018 172.69 263.954 170.732C262.1 167.3 260.246 163.871 258.392 160.445C254.675 162.603 250.283 160.341 246.594 158.107C242.906 155.873 238.514 153.601 234.787 155.759C229.321 158.915 229.121 169.439 223.455 172.034C221.63 172.871 219.51 172.69 217.818 173.84C216.144 174.981 215.241 177.177 214.49 179.278C214.212 180.474 213.559 181.55 212.627 182.349C212.034 182.659 211.375 182.819 210.707 182.815C209.027 183.1 207.299 182.858 205.763 182.121C204.958 181.615 204.349 180.849 204.038 179.95C203.727 179.051 203.732 178.073 204.052 177.177C204.097 177.082 204.148 176.99 204.204 176.901C204.813 176.165 205.36 175.38 205.839 174.553C206.409 173.042 205.592 171.283 205.773 169.648C206.067 166.853 209.024 165.379 209.528 162.632C209.737 161.558 209.518 160.407 209.718 159.324C209.746 159.182 209.784 159.042 209.832 158.905L208.092 160.103C210.041 157.831 211.02 154.675 212.446 151.918C214.03 148.899 216.21 146.233 218.854 144.081C221.498 141.929 224.551 140.336 227.828 139.398C234.027 137.591 240.577 138.086 246.832 139.616C252.78 141.098 258.479 143.446 263.744 146.585C265.626 147.593 267.297 148.952 268.669 150.587C269.818 152.282 270.796 154.088 271.588 155.977C273.432 159.799 278.47 163.335 274.459 163.868C271.122 164.315 274.164 166.653 275.913 168.231C276.308 168.541 276.648 168.913 276.921 169.334C277.211 169.935 277.344 170.6 277.308 171.267C277.271 171.934 277.066 172.58 276.711 173.146C276.037 174.002 278.775 174.173 277.843 174.591Z" fill="black"></path>
<path d="M277.843 173.641C277.326 173.823 276.885 174.172 276.59 174.634C276.296 175.096 276.164 175.643 276.217 176.189C275.248 177.044 273.888 176.036 273.099 174.943C272.301 173.859 271.397 172.519 270.19 172.671C269.617 172.854 269.06 173.086 268.526 173.365C266.625 173.973 265.018 171.739 263.954 169.781C262.1 166.349 260.246 162.92 258.392 159.495C254.675 161.653 250.283 159.39 246.594 157.156C242.906 154.922 238.514 152.65 234.787 154.808C229.321 157.964 229.121 168.488 223.455 171.083C221.63 171.92 219.51 171.739 217.818 172.89C216.144 174.03 215.241 176.227 214.49 178.328C214.212 179.524 213.559 180.599 212.627 181.398C212.034 181.708 211.375 181.868 210.707 181.864C209.027 182.15 207.299 181.907 205.763 181.17C204.958 180.664 204.349 179.898 204.038 178.999C203.727 178.1 203.732 177.122 204.052 176.226C204.097 176.132 204.148 176.04 204.204 175.951C204.813 175.215 205.36 174.429 205.839 173.603C206.409 172.091 205.592 170.332 205.773 168.697C206.067 165.902 209.024 164.429 209.528 161.681C209.737 160.607 209.518 159.457 209.718 158.373C209.746 158.231 209.784 158.091 209.832 157.955L208.092 159.153C210.041 156.88 211.02 153.724 212.446 150.967C214.03 147.949 216.21 145.283 218.854 143.131C221.498 140.979 224.551 139.385 227.828 138.447C234.027 136.641 240.577 137.135 246.832 138.666C252.78 140.147 258.479 142.495 263.744 145.634C265.626 146.643 267.297 148.001 268.669 149.636C269.818 151.332 270.796 153.137 271.587 155.027C273.432 158.848 278.47 162.385 274.459 162.917C271.122 163.364 274.164 165.703 275.913 167.281C276.308 167.59 276.648 167.963 276.921 168.383C277.211 168.985 277.344 169.65 277.308 170.317C277.271 170.983 277.066 171.63 276.711 172.196C276.037 173.051 278.775 173.222 277.843 173.641Z" fill="#865A61"></path>
<path opacity="0.1" d="M275.913 167.281L275.533 171.283C275.533 171.283 235.643 120.726 204.613 177.814C204.613 177.814 204.461 177.12 204.204 175.951C204.813 175.215 205.36 174.429 205.839 173.603C206.41 172.091 205.592 170.332 205.773 168.697C206.067 165.902 209.024 164.429 209.528 161.681C209.737 160.607 209.518 159.457 209.718 158.373C209.746 158.231 209.784 158.091 209.832 157.955L208.092 159.153C210.041 156.88 211.02 153.724 212.446 150.967C214.03 147.949 216.21 145.283 218.854 143.131C221.498 140.979 224.551 139.385 227.828 138.447C234.027 136.641 240.577 137.135 246.832 138.666C252.78 140.147 258.479 142.495 263.745 145.634C265.626 146.643 267.297 148.001 268.669 149.636C269.818 151.332 270.796 153.137 271.588 155.027C273.432 158.848 278.47 162.385 274.459 162.917C271.122 163.364 274.164 165.703 275.913 167.281Z" fill="black"></path>
<g opacity="0.1">
<path d="M276.897 173.123C276.7 173.344 276.557 173.607 276.478 173.893C276.4 174.178 276.388 174.478 276.444 174.768C275.475 175.624 274.115 174.616 273.326 173.523C272.528 172.439 271.625 171.099 270.417 171.251C269.844 171.434 269.287 171.666 268.754 171.945C266.852 172.553 265.246 170.319 264.181 168.361C262.327 164.929 260.473 161.5 258.619 158.075C254.902 160.233 250.51 157.97 246.822 155.736C243.133 153.502 238.741 151.23 235.014 153.388C229.548 156.544 229.348 167.068 223.682 169.663C221.857 170.5 219.737 170.319 218.045 171.47C216.372 172.61 215.468 174.806 214.717 176.907C214.44 178.103 213.787 179.179 212.854 179.978C212.262 180.288 211.602 180.448 210.934 180.444C209.254 180.729 207.527 180.487 205.99 179.75C205.07 179.139 204.409 178.207 204.138 177.136C203.949 177.988 204.025 178.877 204.356 179.684C204.688 180.491 205.258 181.178 205.99 181.651C207.527 182.388 209.254 182.631 210.934 182.345C211.602 182.349 212.262 182.189 212.854 181.879C213.787 181.081 214.44 180.005 214.717 178.809C215.468 176.708 216.372 174.512 218.045 173.371C219.737 172.221 221.857 172.401 223.682 171.565C229.348 168.969 229.548 158.445 235.014 155.289C238.741 153.131 243.133 155.403 246.822 157.637C250.51 159.871 254.902 162.134 258.619 159.976C260.473 163.398 262.327 166.827 264.181 170.262C265.246 172.221 266.852 174.455 268.754 173.846C269.287 173.567 269.844 173.335 270.417 173.152C271.625 173 272.528 174.341 273.326 175.424C274.115 176.518 275.475 177.525 276.444 176.67C276.392 176.124 276.523 175.577 276.818 175.115C277.112 174.653 277.553 174.304 278.07 174.122C278.811 173.789 277.235 173.612 276.897 173.123Z" fill="black"></path>
<path d="M273.788 163.625C274.076 163.509 274.378 163.433 274.686 163.398C276.455 163.164 276.462 162.344 275.762 161.174C275.429 161.354 275.063 161.464 274.686 161.497C272.777 161.753 272.958 162.628 273.788 163.625Z" fill="black"></path>
<path d="M277.43 171.588C277.563 170.975 277.559 170.341 277.42 169.729C277.336 170.108 277.171 170.465 276.939 170.776C276.641 171.153 277.008 171.397 277.43 171.588Z" fill="black"></path>
<path d="M206.055 168.85C206.035 168.958 206.012 169.066 206 169.178C205.961 170.035 206.023 170.892 206.185 171.734C206.298 170.772 206.253 169.798 206.055 168.85Z" fill="black"></path>
<path d="M209.914 157.251C209.467 158.098 208.932 158.897 208.319 159.634L209.854 158.577C209.846 158.134 209.867 157.691 209.914 157.251Z" fill="black"></path>
</g>
<path d="M204.611 176.863C204.611 176.863 198.875 151.22 200.7 147.108C200.7 147.108 195.746 136.947 195.746 134.528C195.505 130.491 194.25 126.58 192.095 123.158C189.488 119.045 186.62 99.934 202.264 95.3375C217.909 90.7411 229.903 86.6285 231.728 83.4836C233.553 80.3387 260.409 82.274 267.71 94.3699C275.011 106.466 279.704 104.047 279.704 104.047C279.704 104.047 290.916 111.062 290.916 117.352C290.916 123.642 287.526 126.787 290.916 128.238C294.306 129.69 291.698 155.817 276.836 156.542L275.532 170.332C275.532 170.332 235.639 119.771 204.611 176.863Z" fill="#E97C3E"></path>
<path opacity="0.1" d="M206.319 100.335C206.319 100.335 202.873 120.536 209.171 127.31L206.319 100.335Z" fill="black"></path>
<path opacity="0.1" d="M222.481 95.7001C222.481 95.7001 213.687 117.328 215.826 121.487L222.481 95.7001Z" fill="black"></path>
<path opacity="0.1" d="M230.086 88.8077C230.086 88.8077 224.144 116.971 226.996 119.229L230.086 88.8077Z" fill="black"></path>
<path opacity="0.1" d="M240.306 96.413C240.306 96.413 232.938 114.476 235.909 116.971L240.306 96.413Z" fill="black"></path>
<path opacity="0.1" d="M254.209 98.552C254.209 98.552 245.534 113.287 247.317 115.902L254.209 98.552Z" fill="black"></path>
<path opacity="0.1" d="M272.034 112.931C272.034 112.931 262.765 115.426 264.667 118.397L272.034 112.931Z" fill="black"></path>
<path opacity="0.1" d="M280.828 128.261C280.828 128.261 272.51 132.301 274.054 134.44L280.828 128.261Z" fill="black"></path>
<path opacity="0.1" d="M200.7 147.108C200.7 147.108 253.831 125.526 276.836 156.542C276.836 156.542 248.912 132.8 200.7 147.108Z" fill="black"></path>
<path d="M181.5 324.434L188.903 316.945L209.834 337.636L202.431 345.126L183.181 326.097L181.5 324.434Z" fill="#53526B"></path>
<path d="M132.932 276.424C132.932 276.424 165.334 279.181 195.492 313.126L182.922 325.841L132.932 276.424Z" fill="#DFE6F5"></path>
<path d="M230.121 337.118C230.121 337.118 198.978 325.765 195.917 323.05C192.857 320.335 174.855 336.131 196.817 357.603C196.817 357.603 223.673 365.254 230.858 357.603C238.042 349.952 230.121 337.118 230.121 337.118Z" fill="#FDC2CC"></path>
</g>
<defs>
<linearGradient id="paint0_linear_1_94" x1="247.568" y1="856.488" x2="247.568" y2="78.7564" gradientUnits="userSpaceOnUse">
<stop stop-color="#808080" stop-opacity="0.25"></stop>
<stop offset="0.53514" stop-color="#808080" stop-opacity="0.12"></stop>
<stop offset="1" stop-color="#808080" stop-opacity="0.1"></stop>
</linearGradient>
<clipPath id="clip0_1_94">
<rect width="500" height="500" fill="white"></rect>
</clipPath>
</defs>
</svg>
